# xmcd
#
# Track frame offsets: 
#        150
#        19342
#        38467
#        54567
#        73955
#        93994
#        118133
#        137751
#        155565
#        181662
#        192472
#        210944
#
# Disc length: 3257 seconds
#
# Revision: 0
# Processed by: cddbd v1.5.2PL0 Copyright (c) Steve Scherf et al.
# Submitted via: ExactAudioCopy v0.99pb5
#
DISCID=a50cb70c
DTITLE=Rose's Pawn Shop - Dancing on the Gallows
DYEAR=2010
DGENRE=Bluegrass
TTITLE0=Dancing on the Gallows
TTITLE1=Danger Behind the Wheel
TTITLE2=The Well
TTITLE3=Pine Box
TTITLE4=Ball of Flames
TTITLE5=Patiently
TTITLE6=The Bed In Which You Lie
TTITLE7=Straw Man
TTITLE8=Strangers
TTITLE9=One Last Glass of Whiskey
TTITLE10=The Garden
TTITLE11=Debt Collector
EXTD=
EXTT0=
EXTT1=
EXTT2=
EXTT3=
EXTT4=
EXTT5=
EXTT6=
EXTT7=
EXTT8=
EXTT9=
EXTT10=
EXTT11=
PLAYORDER=
